<?xml version="1.0" encoding="utf-8"?><svg version="1.1" id="Layer_1" xmlns="http://www.w3.org/2000/svg" xmlns:xlink="http://www.w3.org/1999/xlink" x="0px" y="0px" viewBox="0 0 122.88 112.52" style="enable-background:new 0 0 122.88 112.52" xml:space="preserve"><g><path d="M30.36,55.98l35.29,35.29c0.47,0.4,1.07,0.62,1.65,0.62c0.51,0,0.99-0.16,1.34-0.51l0.09-0.09l48.08-56.25 c0.5-0.58,0.77-1.29,0.77-1.97c0-0.56-0.2-1.12-0.63-1.55L91.34,5.91c-0.42-0.42-0.95-0.61-1.5-0.61c-0.71,0-1.44,0.28-2.07,0.79 L30.15,52.8l-0.11,0.11c-0.32,0.32-0.46,0.77-0.46,1.25c0,0.58,0.21,1.17,0.59,1.64L30.36,55.98L30.36,55.98z M97.16,37.82 c1.03-1.03,2.71-1.03,3.75,0c1.03,1.03,1.03,2.71,0,3.75L75.39,67.08c-1.03,1.03-2.71,1.03-3.75,0c-1.03-1.03-1.03-2.71,0-3.75 L97.16,37.82L97.16,37.82z M81.82,22.49c1.03-1.03,2.71-1.03,3.75,0c1.03,1.03,1.03,2.71,0,3.75L60.06,51.75 c-1.03,1.03-2.71,1.03-3.75,0c-1.03-1.03-1.03-2.71,0-3.75L81.82,22.49L81.82,22.49z M30.64,105.8l-5.95,5.95 c-0.63,0.63-1.5,0.88-2.32,0.74l-20.01-2.21c-1.45-0.16-2.5-1.47-2.34-2.92c0.07-0.62,0.35-1.17,0.76-1.58l0,0l14.92-14.92 l-1.07-1.07c-1.03-1.03-1.03-2.71,0-3.75l4.69-4.69l0.01,0.01l0.07-0.07c0.19-0.18,0.37-0.39,0.54-0.62 c0.16-0.22,0.3-0.48,0.43-0.75c0.92-1.99,0.54-6.28,0.24-9.63l0.01,0c-0.09-0.96-0.16-1.85-0.2-2.46 c-0.56-4.42,2.26-6.98,5.09-9.51c-0.77-1.25-1.18-2.69-1.19-4.11c-0.02-1.84,0.62-3.67,1.99-5.04c0.13-0.13,0.3-0.28,0.52-0.46 L84.44,1.99C86.02,0.7,87.94,0,89.84,0c1.9,0,3.77,0.68,5.25,2.16l25.61,25.61c1.48,1.48,2.18,3.37,2.18,5.29 c0,1.91-0.71,3.85-2.05,5.41L72.75,94.73c-0.15,0.18-0.28,0.32-0.36,0.4c-1.4,1.4-3.26,2.06-5.13,2.04 c-1.41-0.01-2.84-0.41-4.07-1.17c-2.53,2.84-5.09,5.65-9.51,5.09c-0.91-0.05-1.66-0.12-2.46-0.19l0-0.01 c-3.35-0.3-7.63-0.68-9.63,0.25c-0.28,0.13-0.53,0.27-0.75,0.43c-0.18,0.13-0.36,0.28-0.53,0.45c-0.05,0.06-0.1,0.12-0.16,0.17 l-4.69,4.69c-1.03,1.03-2.71,1.03-3.75,0L30.64,105.8L30.64,105.8z M20.24,87.9l1.07,1.07l11.2,11.2l1.07,1.07l2.89-2.89 c0.4-0.41,0.83-0.78,1.29-1.11c0.51-0.36,1.05-0.67,1.6-0.93c3.26-1.51,8.33-1.06,12.3-0.7l0-0.01c0.98,0.09,1.89,0.17,2.4,0.2 l0.22,0.02c1.73,0.23,3.37-1.6,5-3.43L29.08,62.2c-1.83,1.63-3.67,3.28-3.42,5.01l0.02,0.21c0.05,0.86,0.12,1.61,0.19,2.4h0.01 c0.35,3.96,0.8,9.03-0.71,12.3c-0.26,0.55-0.56,1.09-0.93,1.6c-0.34,0.47-0.73,0.93-1.19,1.36l0.01,0.01L20.24,87.9L20.24,87.9z"/></g></svg>